<svg xmlns="http://www.w3.org/2000/svg" width="1000" height="560" viewBox="0 0 1000 560">
<rect width="100%" height="100%" fill="white"/>
<text x="500" y="45" text-anchor="middle" font-family="Arial" font-size="28" font-weight="bold">Smart Parking System - Prototype Wiring</text>
<rect x="60" y="120" width="260" height="300" rx="15" fill="none" stroke="black" stroke-width="3"/>
<text x="190" y="170" text-anchor="middle" font-family="Arial" font-size="25" font-weight="bold">Arduino Uno</text>
<text x="190" y="220" text-anchor="middle" font-family="Arial" font-size="18">D2 → IR Sensor 1</text>
<text x="190" y="260" text-anchor="middle" font-family="Arial" font-size="18">D3 → IR Sensor 2</text>
<text x="190" y="300" text-anchor="middle" font-family="Arial" font-size="18">D4 → IR Sensor 3</text>
<text x="190" y="340" text-anchor="middle" font-family="Arial" font-size="18">D5 → IR Sensor 4</text>
<text x="190" y="385" text-anchor="middle" font-family="Arial" font-size="18">USB / Serial → PC</text>

<rect x="570" y="100" width="330" height="75" rx="12" fill="none" stroke="black" stroke-width="2"/>
<text x="735" y="145" text-anchor="middle" font-family="Arial" font-size="20">IR Sensor 1 → Parking Slot 1</text>
<rect x="570" y="195" width="330" height="75" rx="12" fill="none" stroke="black" stroke-width="2"/>
<text x="735" y="240" text-anchor="middle" font-family="Arial" font-size="20">IR Sensor 2 → Parking Slot 2</text>
<rect x="570" y="290" width="330" height="75" rx="12" fill="none" stroke="black" stroke-width="2"/>
<text x="735" y="335" text-anchor="middle" font-family="Arial" font-size="20">IR Sensor 3 → Parking Slot 3</text>
<rect x="570" y="385" width="330" height="75" rx="12" fill="none" stroke="black" stroke-width="2"/>
<text x="735" y="430" text-anchor="middle" font-family="Arial" font-size="20">IR Sensor 4 → Parking Slot 4</text>

<line x1="320" y1="220" x2="570" y2="135" stroke="black" stroke-width="2"/>
<line x1="320" y1="260" x2="570" y2="230" stroke="black" stroke-width="2"/>
<line x1="320" y1="300" x2="570" y2="325" stroke="black" stroke-width="2"/>
<line x1="320" y1="340" x2="570" y2="420" stroke="black" stroke-width="2"/>

<rect x="330" y="455" width="300" height="55" rx="10" fill="none" stroke="black" stroke-width="2"/>
<text x="480" y="490" text-anchor="middle" font-family="Arial" font-size="18">Python Monitor on PC</text>
</svg>